<svg xmlns="http://www.w3.org/2000/svg" width="32" height="32" viewBox="0 0 32 32" fill="none"><rect width="32" height="32" rx="16" fill="#121212"></rect><path d="M9.50875 9.52438H24.0318V24.0467H9.50875V9.52438Z" stroke="white" stroke-width="0.392506"></path><path d="M7.71875 7.75781H22.6343V22.6727H7.71875V7.75781Z" fill="white"></path><path d="M7.71875 7.75781H22.6343V22.6727H7.71875V7.75781Z" fill="white"></path><path d="M10.832 18.4961L14.0334 11.9336H15.605L12.4036 18.4961H10.832Z" fill="#121212"></path><path d="M17.2789 15.2149L16.5533 14.6722L17.1222 13.8752L16.207 13.553L16.4874 12.6797L17.3943 12.9934V11.9336H18.3012V12.9934L19.2081 12.6797L19.4885 13.553L18.5733 13.8752L19.1422 14.6722L18.4166 15.2149L17.8477 14.4179L17.2789 15.2149Z" fill="#121212"></path></svg>