<svg xmlns="http://www.w3.org/2000/svg" width="1340" height="566" viewBox="0 0 1340 566" fill="none"><g opacity="0.03" filter="url(#filter0_f_916_15810)"><path opacity="0.010101" d="M426.105 0.699881C420.537 -5.06542 419.315 -13.7599 423.078 -20.8365L647.18 -442.312C650.943 -449.388 658.834 -453.237 666.727 -451.845L1136.83 -368.954C1144.72 -367.563 1150.82 -361.247 1151.93 -353.31L1218.37 119.394C1219.48 127.331 1215.36 135.083 1208.16 138.597L779.118 347.853C771.914 351.367 763.267 349.842 757.7 344.077L426.105 0.699881Z" stroke="url(#paint0_linear_916_15810)" stroke-width="3"></path><path opacity="0.020202" d="M421.022 -5.08499C415.556 -10.9466 414.486 -19.6611 418.372 -26.6709L649.347 -443.362C653.233 -450.372 661.19 -454.083 669.058 -452.553L1136.73 -361.647C1144.6 -360.118 1150.59 -353.697 1151.56 -345.742L1209.62 127.133C1210.6 135.088 1206.34 142.767 1199.08 146.154L767.292 347.501C760.028 350.888 751.41 349.212 745.944 343.351L421.022 -5.08499Z" stroke="url(#paint1_linear_916_15810)" stroke-width="3"></path><path opacity="0.030303" d="M416.067 -10.8611C410.704 -16.8171 409.786 -25.549 413.794 -32.49L651.545 -444.287C655.552 -451.228 663.573 -454.799 671.413 -453.132L1136.52 -354.27C1144.36 -352.604 1150.24 -346.079 1151.08 -338.108L1200.78 134.789C1201.62 142.76 1197.23 150.363 1189.91 153.623L755.513 347.027C748.191 350.287 739.603 348.462 734.24 342.506L416.067 -10.8611Z" stroke="url(#paint2_linear_916_15810)" stroke-width="3"></path><path opacity="0.040404" d="M411.246 -16.6254C405.988 -22.6742 405.222 -31.4208 409.35 -38.2907L653.776 -445.083C657.904 -451.953 665.986 -455.384 673.795 -453.581L1136.21 -346.824C1144.02 -345.021 1149.78 -338.395 1150.48 -330.411L1191.84 142.361C1192.54 150.345 1188.02 157.871 1180.64 161.003L743.787 346.435C736.41 349.567 727.855 347.592 722.597 341.543L411.246 -16.6254Z" stroke="url(#paint3_linear_916_15810)" stroke-width="3"></path><path opacity="0.050505" d="M406.55 -22.377C401.398 -28.5166 400.785 -37.2752 405.033 -44.0721L656.031 -445.753C660.278 -452.55 668.419 -455.839 676.195 -453.9L1135.78 -339.313C1143.56 -337.374 1149.2 -330.648 1149.76 -322.653L1182.8 149.847C1183.36 157.842 1178.71 165.288 1171.27 168.29L732.11 345.724C724.679 348.726 716.16 346.602 711.008 340.463L406.55 -22.377Z" stroke="url(#paint4_linear_916_15810)" stroke-width="3"></path><path opacity="0.0606061" d="M401.982 -28.1146C396.939 -34.3432 396.479 -43.1112 400.844 -49.8329L658.311 -446.297C662.676 -453.019 670.873 -456.165 678.615 -454.091L1135.24 -331.74C1142.98 -329.665 1148.5 -322.842 1148.92 -314.838L1173.66 157.243C1174.08 165.247 1169.3 172.611 1161.82 175.483L720.488 344.894C713.005 347.766 704.524 345.494 699.481 339.265L401.982 -28.1146Z" stroke="url(#paint5_linear_916_15810)" stroke-width="3"></path><path opacity="0.0707071" d="M397.544 -33.835C392.61 -40.1507 392.303 -48.9253 396.785 -55.5698L660.615 -446.714C665.097 -453.359 673.347 -456.362 681.052 -454.152L1134.58 -324.105C1142.28 -321.896 1147.69 -314.977 1147.97 -306.968L1164.44 164.55C1164.71 172.56 1159.81 179.839 1152.27 182.58L708.922 343.947C701.39 346.688 692.951 344.268 688.016 337.953L397.544 -33.835Z" stroke="url(#paint6_linear_916_15810)" stroke-width="3"></path><path opacity="0.0808081" d="M393.234 -39.5339C388.41 -45.9347 388.257 -54.7134 392.854 -61.2786L662.94 -447.002C667.537 -453.567 675.839 -456.426 683.504 -454.082L1133.81 -316.41C1141.47 -314.067 1146.76 -307.055 1146.9 -299.041L1155.12 171.768C1155.26 179.782 1150.22 186.974 1142.64 189.583L697.415 342.887C689.837 345.496 681.44 342.929 676.617 336.529L393.234 -39.5339Z" stroke="url(#paint7_linear_916_15810)" stroke-width="3"></path><path opacity="0.0909091" d="M389.051 -45.2119C384.341 -51.696 384.341 -60.4759 389.051 -66.96L665.285 -447.163C669.996 -453.647 678.346 -456.36 685.969 -453.884L1132.92 -308.659C1140.55 -306.182 1145.71 -299.079 1145.71 -291.065V178.893C1145.71 186.907 1140.55 194.01 1132.92 196.487L685.969 341.712C678.346 344.189 669.996 341.475 665.285 334.991L389.051 -45.2119Z" stroke="url(#paint8_linear_916_15810)" stroke-width="3"></path><path opacity="0.10101" d="M384.993 -50.867C380.396 -57.4323 380.549 -66.2109 385.373 -72.6118L667.644 -447.198C672.467 -453.599 680.863 -456.166 688.442 -453.557L1131.92 -300.855C1139.5 -298.245 1144.53 -291.053 1144.4 -283.04L1136.21 185.922C1136.07 193.935 1130.79 200.948 1123.12 203.291L674.583 340.423C666.918 342.766 658.616 339.908 654.019 333.342L384.993 -50.867Z" stroke="url(#paint9_linear_916_15810)" stroke-width="3"></path><path opacity="0.111111" d="M381.062 -56.4931C376.581 -63.1376 376.887 -71.9123 381.821 -78.2279L670.018 -447.103C674.952 -453.418 683.392 -455.839 690.924 -453.097L1130.8 -292.995C1138.33 -290.254 1143.24 -282.975 1142.96 -274.965L1126.63 192.859C1126.35 200.869 1120.94 207.788 1113.24 209.997L663.262 339.025C655.558 341.234 647.307 338.231 642.826 331.587L381.062 -56.4931Z" stroke="url(#paint10_linear_916_15810)" stroke-width="3"></path><path opacity="0.121212" d="M377.255 -62.0935C372.89 -68.8152 373.349 -77.5831 378.393 -83.8117L672.402 -446.882C677.446 -453.111 685.927 -455.384 693.409 -452.511L1129.56 -285.087C1137.05 -282.215 1141.83 -274.852 1141.41 -266.848L1116.96 199.697C1116.54 207.7 1111.01 214.524 1103.27 216.598L652.006 337.514C644.264 339.589 636.067 336.442 631.702 329.721L377.255 -62.0935Z" stroke="url(#paint11_linear_916_15810)" stroke-width="3"></path><path opacity="0.131313" d="M373.573 -67.6611C369.326 -74.458 369.938 -83.2166 375.09 -89.3562L674.797 -446.533C679.948 -452.672 688.467 -454.796 695.899 -451.794L1128.21 -277.13C1135.64 -274.127 1140.29 -266.681 1139.73 -258.686L1107.21 206.439C1106.65 214.434 1101.01 221.16 1093.23 223.099L640.818 335.897C633.041 337.836 624.901 334.547 620.653 327.75L373.573 -67.6611Z" stroke="url(#paint12_linear_916_15810)" stroke-width="3"></path><path opacity="0.141414" d="M370.014 -73.1966C365.886 -80.0665 366.651 -88.8131 371.909 -94.8619L677.198 -446.056C682.456 -452.105 691.011 -454.08 698.388 -450.948L1126.73 -269.127C1134.11 -265.995 1138.63 -258.469 1137.93 -250.485L1097.38 213.081C1096.68 221.065 1090.92 227.692 1083.11 229.494L629.699 334.172C621.89 335.975 613.808 332.545 609.68 325.675L370.014 -73.1966Z" stroke="url(#paint13_linear_916_15810)" stroke-width="3"></path><path opacity="0.151515" d="M366.578 -78.6977C362.57 -85.6386 363.488 -94.3705 368.851 -100.327L679.603 -445.452C684.966 -451.408 693.554 -453.234 700.876 -449.974L1125.14 -261.08C1132.46 -257.821 1136.85 -250.217 1136.01 -242.246L1087.47 219.622C1086.63 227.593 1080.76 234.118 1072.92 235.784L618.652 332.341C610.812 334.007 602.791 330.436 598.784 323.495L366.578 -78.6977Z" stroke="url(#paint14_linear_916_15810)" stroke-width="3"></path><path opacity="0.161616" d="M363.262 -84.1611C359.377 -91.1709 360.447 -99.8854 365.913 -105.747L682.011 -444.721C687.477 -450.583 696.096 -452.258 703.359 -448.871L1123.42 -252.992C1130.69 -249.605 1134.94 -241.926 1133.97 -233.971L1077.48 226.063C1076.5 234.018 1070.52 240.439 1062.65 241.968L607.676 330.406C599.809 331.935 591.851 328.225 587.966 321.215L363.262 -84.1611Z" stroke="url(#paint15_linear_916_15810)" stroke-width="3"></path><path opacity="0.171717" d="M360.067 -89.5844C356.305 -96.661 357.527 -105.356 363.094 -111.121L684.418 -443.862C689.986 -449.627 698.632 -451.152 705.836 -447.638L1121.59 -244.863C1128.79 -241.35 1132.91 -233.598 1131.8 -225.661L1067.42 232.402C1066.3 240.338 1060.2 246.654 1052.31 248.046L596.775 328.369C588.882 329.761 580.991 325.912 577.228 318.836L360.067 -89.5844Z" stroke="url(#paint16_linear_916_15810)" stroke-width="3"></path><path opacity="0.181818" d="M356.993 -94.9678C353.355 -102.109 354.728 -110.781 360.395 -116.448L686.824 -442.877C692.492 -448.544 701.163 -449.918 708.305 -446.279L1119.63 -236.699C1126.77 -233.06 1130.76 -225.237 1129.5 -217.321L1057.29 238.635C1056.03 246.551 1049.82 252.76 1041.91 254.014L585.951 326.23C578.035 327.484 570.212 323.498 566.574 316.357L356.993 -94.9678Z" stroke="url(#paint17_linear_916_15810)" stroke-width="3"></path><path opacity="0.191919" d="M354.04 -100.307C350.526 -107.511 352.051 -116.157 357.816 -121.725L689.228 -441.765C694.993 -447.333 703.687 -448.555 710.764 -444.792L1117.55 -228.499C1124.63 -224.736 1128.48 -216.845 1127.09 -208.952L1047.08 244.765C1045.69 252.658 1039.38 258.757 1031.44 259.872L575.207 323.992C567.27 325.107 559.518 320.985 556.004 313.782L354.04 -100.307Z" stroke="url(#paint18_linear_916_15810)" stroke-width="3"></path><path opacity="0.20202" d="M351.201 -105.604C347.814 -112.868 349.489 -121.487 355.35 -126.953L691.621 -440.53C697.483 -445.996 706.197 -447.066 713.207 -443.18L1115.35 -220.269C1122.36 -216.383 1126.07 -208.426 1124.54 -200.558L1036.81 250.786C1035.28 258.653 1028.86 264.641 1020.9 265.618L564.538 321.653C556.584 322.629 548.904 318.373 545.517 311.109L351.201 -105.604Z" stroke="url(#paint19_linear_916_15810)" stroke-width="3"></path><path opacity="0.212121" d="M348.48 -110.85C345.22 -118.172 347.046 -126.76 353.002 -132.123L694.007 -439.165C699.963 -444.528 708.695 -445.446 715.636 -441.438L1113.03 -212.005C1119.97 -207.997 1123.54 -199.976 1121.87 -192.137L1026.47 256.704C1024.8 264.543 1018.28 270.418 1010.31 271.256L553.953 319.221C545.982 320.058 538.378 315.668 535.119 308.347L348.48 -110.85Z" stroke="url(#paint20_linear_916_15810)" stroke-width="3"></path><path opacity="0.222222" d="M345.878 -116.049C342.747 -123.427 344.722 -131.982 350.77 -137.24L696.385 -437.678C702.434 -442.936 711.18 -443.701 718.05 -439.573L1110.58 -203.715C1117.45 -199.587 1120.89 -191.505 1119.08 -183.696L1016.07 262.511C1014.26 270.32 1007.64 276.08 999.654 276.779L543.453 316.691C535.469 317.39 527.943 312.868 524.811 305.49L345.878 -116.049Z" stroke="url(#paint21_linear_916_15810)" stroke-width="3"></path><path opacity="0.232323" d="M343.387 -121.196C340.384 -128.627 342.509 -137.146 348.648 -142.298L698.745 -436.064C704.885 -441.216 713.644 -441.828 720.44 -437.581L1108.02 -195.398C1114.81 -191.151 1118.1 -183.01 1116.16 -175.233L1005.6 268.211C1003.66 275.987 996.934 281.631 988.939 282.19L533.033 314.07C525.038 314.629 517.592 309.977 514.589 302.546L343.387 -121.196Z" stroke="url(#paint22_linear_916_15810)" stroke-width="3"></path><path opacity="0.242424" d="M341.01 -126.288C338.138 -133.771 340.41 -142.252 346.639 -147.295L701.092 -434.326C707.32 -439.369 716.088 -439.829 722.81 -435.464L1105.32 -187.057C1112.05 -182.691 1115.19 -174.495 1113.12 -166.753L995.071 273.801C992.997 281.543 986.174 287.069 978.17 287.488L522.7 311.358C514.696 311.778 507.332 306.996 504.46 299.513L341.01 -126.288Z" stroke="url(#paint23_linear_916_15810)" stroke-width="3"></path><path opacity="0.252525" d="M338.744 -131.328C336.003 -138.859 338.423 -147.299 344.739 -152.233L703.419 -432.465C709.734 -437.399 718.509 -437.705 725.154 -433.224L1102.51 -178.695C1109.15 -174.213 1112.16 -165.963 1109.95 -158.259L984.484 279.28C982.275 286.984 975.356 292.39 967.346 292.67L512.452 308.555C504.442 308.835 497.163 303.925 494.422 296.394L338.744 -131.328Z" stroke="url(#paint24_linear_916_15810)" stroke-width="3"></path><path opacity="0.262626" d="M336.591 -136.31C333.982 -143.889 336.549 -152.285 342.95 -157.108L705.728 -430.481C712.129 -435.304 720.907 -435.458 727.473 -430.861L1099.57 -170.315C1106.14 -165.718 1108.99 -157.416 1106.65 -149.752L973.842 284.647C971.498 292.311 964.486 297.595 956.473 297.735L502.295 305.663C494.281 305.803 487.089 300.767 484.48 293.189L336.591 -136.31Z" stroke="url(#paint25_linear_916_15810)" stroke-width="3"></path><path opacity="0.272727" d="M334.547 -141.233C332.071 -148.855 334.784 -157.206 341.268 -161.917L708.014 -428.373C714.498 -433.084 723.278 -433.084 729.762 -428.373L1096.51 -161.917C1102.99 -157.206 1105.71 -148.855 1103.23 -141.233L963.144 289.903C960.667 297.525 953.564 302.686 945.55 302.686L492.226 302.686C484.212 302.686 477.109 297.525 474.632 289.903L334.547 -141.233Z" stroke="url(#paint26_linear_916_15810)" stroke-width="3"></path><path opacity="0.282828" d="M332.615 -146.095C330.271 -153.76 333.13 -162.061 339.695 -166.658L710.279 -426.144C716.844 -430.741 725.623 -430.587 732.023 -425.764L1093.33 -153.504C1099.73 -148.68 1102.29 -140.284 1099.68 -132.706L952.397 295.046C949.788 302.624 942.596 307.66 934.582 307.52L482.252 299.625C474.239 299.485 467.227 294.201 464.883 286.536L332.615 -146.095Z" stroke="url(#paint27_linear_916_15810)" stroke-width="3"></path><path opacity="0.292929" d="M330.788 -150.894C328.578 -158.598 331.581 -166.848 338.226 -171.33L712.515 -423.792C719.16 -428.273 727.935 -427.967 734.25 -423.033L1090.02 -145.077C1096.33 -140.143 1098.75 -131.703 1096.01 -124.171L941.598 300.076C938.857 307.608 931.578 312.517 923.569 312.238L472.369 296.481C464.359 296.202 457.44 290.796 455.231 283.092L330.788 -150.894Z" stroke="url(#paint28_linear_916_15810)" stroke-width="3"></path><path opacity="0.30303" d="M329.064 -155.631C326.99 -163.372 330.136 -171.569 336.858 -175.934L714.722 -421.322C721.443 -425.687 730.211 -425.228 736.44 -420.184L1086.58 -136.643C1092.81 -131.599 1095.08 -123.118 1092.21 -115.636L930.75 304.99C927.877 312.472 920.514 317.254 912.51 316.834L462.577 293.254C454.573 292.835 447.75 287.309 445.675 279.568L329.064 -155.631Z" stroke="url(#paint29_linear_916_15810)" stroke-width="3"></path><path opacity="0.313131" d="M327.447 -160.299C325.508 -168.076 328.797 -176.216 335.594 -180.464L716.899 -418.729C723.696 -422.976 732.454 -422.364 738.594 -417.212L1083.03 -128.198C1089.17 -123.046 1091.29 -114.527 1088.29 -107.096L919.856 309.791C916.854 317.222 909.408 321.875 901.413 321.316L452.881 289.951C444.886 289.392 438.16 283.748 436.221 275.972L327.447 -160.299Z" stroke="url(#paint30_linear_916_15810)" stroke-width="3"></path><path opacity="0.323232" d="M325.934 -164.902C324.131 -172.711 327.562 -180.793 334.431 -184.921L719.045 -416.02C725.915 -420.148 734.661 -419.383 740.71 -414.125L1079.35 -119.749C1085.4 -114.491 1087.37 -105.936 1084.24 -98.5587L908.92 314.474C905.789 321.852 898.263 326.374 890.279 325.675L443.283 286.568C435.299 285.87 428.673 280.11 426.87 272.3L325.934 -164.902Z" stroke="url(#paint31_linear_916_15810)" stroke-width="3"></path><path opacity="0.333333" d="M324.523 -169.434C322.857 -177.274 326.428 -185.295 333.369 -189.302L721.157 -413.191C728.098 -417.199 736.83 -416.281 742.786 -410.918L1075.55 -111.296C1081.51 -105.933 1083.33 -97.3447 1080.07 -90.0229L897.944 319.043C894.684 326.365 887.08 330.755 879.109 329.917L433.784 283.111C425.813 282.274 419.288 276.399 417.622 268.559L324.523 -169.434Z" stroke="url(#paint32_linear_916_15810)" stroke-width="3"></path><path opacity="0.343434" d="M323.21 -173.896C321.681 -181.764 325.392 -189.721 332.401 -193.607L723.229 -410.246C730.239 -414.132 738.953 -413.062 744.815 -407.596L1071.62 -102.842C1077.49 -97.3757 1079.16 -88.757 1075.77 -81.4933L886.924 323.494C883.537 330.758 875.858 335.015 867.903 334.038L424.38 279.58C416.425 278.603 410.003 272.615 408.474 264.748L323.21 -173.896Z" stroke="url(#paint33_linear_916_15810)" stroke-width="3"></path><path opacity="0.353535" d="M321.998 -178.284C320.607 -186.176 324.456 -194.068 331.532 -197.831L725.265 -407.182C732.342 -410.945 741.036 -409.723 746.802 -404.155L1067.58 -94.3862C1073.34 -88.8187 1074.87 -80.1721 1071.35 -72.9685L875.871 327.831C872.357 335.034 864.605 339.156 856.668 338.041L415.078 275.98C407.141 274.864 400.825 268.765 399.433 260.872L321.998 -178.284Z" stroke="url(#paint34_linear_916_15810)" stroke-width="3"></path><path opacity="0.363636" d="M320.883 -182.598C319.629 -190.514 323.615 -198.337 330.756 -201.976L727.259 -404.005C734.4 -407.643 743.072 -406.27 748.74 -400.602L1063.41 -85.9357C1069.07 -80.2684 1070.45 -71.5965 1066.81 -64.4553L864.78 332.048C861.141 339.189 853.318 343.175 845.402 341.922L405.875 272.307C397.959 271.053 391.751 264.845 390.497 256.929L320.883 -182.598Z" stroke="url(#paint35_linear_916_15810)" stroke-width="3"></path><path opacity="0.373737" d="M319.861 -186.836C318.746 -194.773 322.868 -202.525 330.071 -206.039L729.21 -400.711C736.413 -404.225 745.06 -402.7 750.627 -396.935L1059.11 -77.4889C1064.68 -71.7236 1065.9 -63.029 1062.14 -55.9525L853.655 336.149C849.893 343.225 842.001 347.074 834.108 345.682L396.773 268.568C388.88 267.177 382.781 260.861 381.665 252.924L319.861 -186.836Z" stroke="url(#paint36_linear_916_15810)" stroke-width="3"></path><path opacity="0.383838" d="M318.938 -190.998C317.962 -198.952 322.218 -206.632 329.482 -210.019L731.12 -397.305C738.383 -400.693 747.002 -399.017 752.468 -393.156L1054.7 -69.0505C1060.17 -63.1889 1061.24 -54.4743 1057.35 -47.4646L842.504 340.13C838.619 347.14 830.661 350.851 822.794 349.321L387.778 264.763C379.91 263.233 373.923 256.812 372.946 248.857L318.938 -190.998Z" stroke="url(#paint37_linear_916_15810)" stroke-width="3"></path><path opacity="0.393939" d="M318.105 -195.079C317.267 -203.05 321.657 -210.654 328.979 -213.914L732.98 -393.786C740.302 -397.046 748.89 -395.221 754.253 -389.265L1050.16 -60.6208C1055.53 -54.6648 1056.45 -45.9328 1052.44 -38.9919L831.321 343.994C827.314 350.935 819.293 354.506 811.454 352.84L378.884 260.894C371.044 259.228 365.169 252.703 364.331 244.732L318.105 -195.079Z" stroke="url(#paint38_linear_916_15810)" stroke-width="3"></path><path opacity="0.40404" d="M317.362 -199.082C316.664 -207.066 321.186 -214.592 328.563 -217.724L734.791 -390.157C742.169 -393.289 750.723 -391.314 755.982 -385.265L1045.51 -52.2044C1050.76 -46.1556 1051.53 -37.409 1047.4 -30.5391L820.111 347.737C815.983 354.607 807.901 358.038 800.092 356.235L370.093 256.962C362.284 255.159 356.523 248.533 355.825 240.548L317.362 -199.082Z" stroke="url(#paint39_linear_916_15810)" stroke-width="3"></path><path opacity="0.414141" d="M316.71 -203.001C316.151 -210.996 320.803 -218.442 328.234 -221.444L736.553 -386.416C743.984 -389.418 752.503 -387.294 757.655 -381.154L1040.73 -43.7994C1045.88 -37.6598 1046.49 -28.9011 1042.25 -22.1043L808.878 351.364C804.63 358.161 796.49 361.45 788.713 359.511L361.409 252.972C353.632 251.033 347.988 244.307 347.429 236.312L316.71 -203.001Z" stroke="url(#paint40_linear_916_15810)" stroke-width="3"></path><path opacity="0.424242" d="M316.146 -206.837C315.727 -214.841 320.509 -222.204 327.991 -225.076L738.264 -382.565C745.746 -385.438 754.227 -383.165 759.271 -376.937L1035.83 -35.4108C1040.88 -29.1822 1041.34 -20.4142 1036.97 -13.6926L797.623 354.871C793.258 361.593 785.061 364.739 777.32 362.665L352.832 248.924C345.091 246.849 339.565 240.026 339.146 232.022L316.146 -206.837Z" stroke="url(#paint41_linear_916_15810)" stroke-width="3"></path><path opacity="0.434343" d="M315.669 -210.589C315.389 -218.598 320.299 -225.877 327.83 -228.619L739.921 -378.607C747.452 -381.348 755.892 -378.928 760.826 -372.613L1030.82 -27.0404C1035.75 -20.7248 1036.06 -11.9501 1031.58 -5.30566L786.349 358.258C781.867 364.903 773.617 367.906 765.913 365.697L344.363 244.819C336.659 242.61 331.254 235.691 330.974 227.682L315.669 -210.589Z" stroke="url(#paint42_linear_916_15810)" stroke-width="3"></path><path opacity="0.444444" d="M315.276 -214.254C315.137 -222.267 320.173 -229.459 327.751 -232.069L741.522 -374.542C749.1 -377.151 757.497 -374.584 762.32 -368.183L1025.68 -18.6896C1030.51 -12.2888 1030.66 -3.51013 1026.06 3.05509L775.057 361.527C770.46 368.092 762.158 370.951 754.494 368.607L336.002 240.662C328.338 238.318 323.054 231.306 322.914 223.293L315.276 -214.254Z" stroke="url(#paint43_linear_916_15810)" stroke-width="3"></path><path opacity="0.454545" d="M314.965 -217.831C314.965 -225.845 320.126 -232.949 327.748 -235.425L743.065 -370.37C750.687 -372.846 759.037 -370.133 763.748 -363.649L1020.43 -10.3601C1025.14 -3.8761 1025.14 4.90395 1020.43 11.3879L763.748 364.677C759.037 371.161 750.687 373.874 743.065 371.397L327.748 236.453C320.126 233.976 314.965 226.873 314.965 218.859L314.965 -217.831Z" stroke="url(#paint44_linear_916_15810)" stroke-width="3"></path><path opacity="0.464646" d="M314.736 -221.32C314.876 -229.334 320.16 -236.346 327.825 -238.689L744.549 -366.094C752.213 -368.438 760.515 -365.579 765.112 -359.014L1015.06 -2.05599C1019.65 4.50924 1019.5 13.2879 1014.68 19.6887L752.427 367.706C747.604 374.107 739.207 376.674 731.629 374.065L319.605 232.193C312.027 229.584 306.991 222.392 307.131 214.379L314.736 -221.32Z" stroke="url(#paint45_linear_916_15810)" stroke-width="3"></path><path opacity="0.474747" d="M314.586 -224.72C314.866 -232.73 320.272 -239.649 327.976 -241.858L745.972 -361.717C753.676 -363.926 761.927 -360.923 766.408 -354.278L1009.57 6.22126C1014.05 12.8657 1013.74 21.6404 1008.81 27.956L741.094 370.615C736.16 376.931 727.72 379.351 720.189 376.61L311.572 227.886C304.041 225.145 299.131 217.866 299.411 209.856L314.586 -224.72Z" stroke="url(#paint46_linear_916_15810)" stroke-width="3"></path><path opacity="0.484848" d="M314.514 -228.029C314.934 -236.032 320.459 -242.856 328.201 -244.93L747.332 -357.236C755.074 -359.31 763.271 -356.164 767.636 -349.442L1003.96 14.4712C1008.33 21.1928 1007.87 29.9608 1002.83 36.1894L729.753 373.406C724.709 379.635 716.228 381.907 708.746 379.035L303.65 223.533C296.167 220.661 291.385 213.297 291.805 205.294L314.514 -228.029Z" stroke="url(#paint47_linear_916_15810)" stroke-width="3"></path><path opacity="0.494949" d="M314.517 -231.245C315.076 -239.24 320.72 -245.966 328.497 -247.905L748.627 -352.656C756.404 -354.595 764.545 -351.306 768.792 -344.509L998.243 22.69C1002.49 29.4869 1001.88 38.2455 996.726 44.3851L718.404 376.077C713.252 382.216 704.733 384.34 697.302 381.338L295.838 219.136C288.407 216.134 283.754 208.688 284.313 200.693L314.517 -231.245Z" stroke="url(#paint48_linear_916_15810)" stroke-width="3"></path><path opacity="0.50505" d="M314.594 -234.366C315.292 -242.351 321.052 -248.977 328.862 -250.78L749.856 -347.974C757.666 -349.777 765.748 -346.346 769.876 -339.477L992.407 30.8785C996.535 37.7484 995.77 46.495 990.512 52.5438L707.049 378.63C701.791 384.679 693.236 386.654 685.859 383.522L288.137 214.7C280.76 211.568 276.238 204.042 276.936 196.058L314.594 -234.366Z" stroke="url(#paint49_linear_916_15810)" stroke-width="3"></path><path opacity="0.515152" d="M314.743 -237.394C315.581 -245.364 321.456 -251.889 329.295 -253.555L751.018 -343.195C758.858 -344.862 766.879 -341.291 770.886 -334.35L986.458 39.0324C990.466 45.9733 989.548 54.7053 984.185 60.6613L695.693 381.064C690.33 387.02 681.742 388.846 674.42 385.586L280.55 210.224C273.228 206.964 268.838 199.36 269.676 191.389L314.743 -237.394Z" stroke="url(#paint50_linear_916_15810)" stroke-width="3"></path><path opacity="0.525253" d="M314.96 -240.326C315.937 -248.281 321.925 -254.702 329.792 -256.232L752.108 -338.321C759.976 -339.851 767.933 -336.14 771.819 -329.13L980.394 47.149C984.279 54.1587 983.209 62.8733 977.743 68.7349L684.334 383.378C678.868 389.24 670.249 390.915 662.985 387.528L273.073 205.709C265.809 202.322 261.553 194.643 262.529 186.688L314.96 -240.326Z" stroke="url(#paint51_linear_916_15810)" stroke-width="3"></path><path opacity="0.535354" d="M315.248 -243.16C316.363 -251.097 322.462 -257.413 330.355 -258.805L753.13 -333.351C761.023 -334.743 768.914 -330.894 772.677 -323.817L974.219 55.2287C977.982 62.3053 976.76 70.9998 971.192 76.7651L672.978 385.575C667.41 391.34 658.764 392.865 651.56 389.352L265.711 201.16C258.508 197.647 254.386 189.895 255.501 181.958L315.248 -243.16Z" stroke="url(#paint52_linear_916_15810)" stroke-width="3"></path><path opacity="0.545455" d="M315.601 -245.898C316.855 -253.814 323.064 -260.022 330.98 -261.276L754.078 -328.288C761.994 -329.542 769.817 -325.556 773.456 -318.415L967.933 63.2677C971.571 70.4088 970.198 79.0808 964.53 84.748L661.625 387.653C655.958 393.32 647.286 394.694 640.145 391.055L258.463 196.578C251.322 192.94 247.335 185.117 248.589 177.201L315.601 -245.898Z" stroke="url(#paint53_linear_916_15810)" stroke-width="3"></path><path opacity="0.555556" d="M316.022 -248.537C317.414 -256.43 323.73 -262.529 331.666 -263.644L754.955 -323.134C762.891 -324.249 770.644 -320.127 774.157 -312.924L961.538 71.2641C965.051 78.4677 963.527 87.1143 957.761 92.6818L650.281 389.612C644.516 395.18 635.821 396.402 628.745 392.639L251.33 191.964C244.254 188.202 240.405 180.31 241.797 172.417L316.022 -248.537Z" stroke="url(#paint54_linear_916_15810)" stroke-width="3"></path><path opacity="0.565657" d="M316.503 -251.075C318.032 -258.942 324.453 -264.93 332.408 -265.907L755.753 -317.887C763.708 -318.864 771.387 -314.607 774.774 -307.343L955.031 79.2186C958.418 86.4823 956.743 95.1011 950.882 100.567L638.942 391.456C633.08 396.922 624.366 397.992 617.356 394.106L244.309 187.323C237.3 183.438 233.589 175.48 235.118 167.613L316.503 -251.075Z" stroke="url(#paint55_linear_916_15810)" stroke-width="3"></path><path opacity="0.575758" d="M317.047 -253.514C318.713 -261.354 325.238 -267.229 333.209 -268.066L756.478 -312.554C764.448 -313.392 772.052 -309.002 775.312 -301.68L948.419 87.1251C951.679 94.4469 949.853 103.035 943.897 108.398L627.615 393.18C621.659 398.543 612.927 399.46 605.986 395.453L237.406 182.653C230.465 178.646 226.894 170.625 228.56 162.785L317.047 -253.514Z" stroke="url(#paint56_linear_916_15810)" stroke-width="3"></path><path opacity="0.585859" d="M317.65 -255.85C319.453 -263.659 326.079 -269.419 334.063 -270.118L757.123 -307.131C765.107 -307.829 772.633 -303.307 775.765 -295.93L941.699 94.9866C944.83 102.364 942.855 110.919 936.807 116.177L616.3 394.79C610.251 400.048 601.504 400.813 594.634 396.685L230.616 177.961C223.746 173.833 220.316 165.751 222.119 157.942L317.65 -255.85Z" stroke="url(#paint57_linear_916_15810)" stroke-width="3"></path><path opacity="0.59596" d="M318.307 -258.085C320.246 -265.861 326.971 -271.505 334.967 -272.064L757.686 -301.624C765.681 -302.183 773.127 -297.53 776.129 -290.099L934.87 102.797C937.872 110.228 935.748 118.747 929.608 123.899L604.996 396.281C598.856 401.433 590.097 402.045 583.301 397.798L223.939 173.244C217.142 168.997 213.853 160.856 215.792 153.08L318.307 -258.085Z" stroke="url(#paint58_linear_916_15810)" stroke-width="3"></path><path opacity="0.606061" d="M319.021 -260.216C321.095 -267.957 327.918 -273.483 335.922 -273.902L758.17 -296.031C766.174 -296.451 773.537 -291.669 776.409 -284.186L927.937 110.557C930.809 118.039 928.537 126.52 922.308 131.564L593.71 397.658C587.481 402.702 578.713 403.161 571.992 398.796L217.379 168.508C210.657 164.143 207.51 155.946 209.585 148.204L319.021 -260.216Z" stroke="url(#paint59_linear_916_15810)" stroke-width="3"></path><path opacity="0.616162" d="M319.787 -262.244C321.996 -269.948 328.915 -275.353 336.925 -275.633L758.571 -290.357C766.581 -290.637 773.86 -285.727 776.601 -278.196L920.901 118.264C923.642 125.795 921.222 134.235 914.906 139.169L582.442 398.919C576.126 403.853 567.351 404.16 560.707 399.678L210.933 163.753C204.289 159.271 201.286 151.02 203.495 143.316L319.787 -262.244Z" stroke="url(#paint60_linear_916_15810)" stroke-width="3"></path><path opacity="0.626263" d="M320.606 -264.165C322.949 -271.83 329.961 -277.114 337.974 -277.254L758.89 -284.601C766.903 -284.741 774.095 -279.705 776.704 -272.127L913.762 125.917C916.371 133.495 913.804 141.892 907.403 146.715L571.194 400.067C564.794 404.89 556.015 405.043 549.45 400.446L204.604 158.982C198.038 154.385 195.18 146.084 197.523 138.419L320.606 -264.165Z" stroke="url(#paint61_linear_916_15810)" stroke-width="3"></path><path opacity="0.636364" d="M321.472 -265.982C323.948 -273.604 331.051 -278.765 339.066 -278.765L759.121 -278.765C767.136 -278.765 774.239 -273.604 776.716 -265.982L906.52 133.514C908.997 141.137 906.284 149.487 899.8 154.198L559.968 401.1C553.484 405.811 544.704 405.811 538.22 401.1L198.388 154.198C191.904 149.487 189.191 141.137 191.667 133.514L321.472 -265.982Z" stroke="url(#paint62_linear_916_15810)" stroke-width="3"></path><path opacity="0.646465" d="M322.384 -267.694C324.994 -275.272 332.186 -280.308 340.199 -280.168L759.267 -272.853C767.28 -272.713 774.292 -267.429 776.635 -259.765L899.178 141.052C901.521 148.717 898.662 157.018 892.097 161.615L548.765 402.019C542.2 406.616 533.421 406.463 527.02 401.64L192.287 149.4C185.886 144.577 183.319 136.18 185.929 128.602L322.384 -267.694Z" stroke="url(#paint63_linear_916_15810)" stroke-width="3"></path><path opacity="0.656566" d="M323.342 -269.298C326.083 -276.83 333.362 -281.739 341.372 -281.46L759.324 -266.864C767.334 -266.585 774.253 -261.179 776.462 -253.475L891.735 148.531C893.944 156.236 890.941 164.486 884.297 168.968L537.588 402.826C530.943 407.308 522.168 407.002 515.853 402.067L186.301 144.593C179.985 139.659 177.565 131.219 180.307 123.688L323.342 -269.298Z" stroke="url(#paint64_linear_916_15810)" stroke-width="3"></path><path opacity="0.666667" d="M324.347 -270.797C327.219 -278.28 334.583 -283.062 342.586 -282.642L759.297 -260.803C767.301 -260.384 774.124 -254.859 776.199 -247.117L884.2 155.947C886.274 163.689 883.127 171.886 876.406 176.251L526.443 403.519C519.721 407.885 510.953 407.425 504.725 402.381L180.435 139.777C174.206 134.733 171.934 126.252 174.806 118.77L324.347 -270.797Z" stroke="url(#paint65_linear_916_15810)" stroke-width="3"></path><path opacity="0.676768" d="M325.39 -272.187C328.392 -279.618 335.838 -284.271 343.833 -283.712L759.178 -254.668C767.173 -254.109 773.899 -248.466 775.838 -240.689L876.564 163.302C878.503 171.079 875.214 179.22 868.417 183.467L515.325 404.103C508.528 408.35 499.769 407.738 493.63 402.586L174.68 134.956C168.541 129.804 166.417 121.285 169.419 113.854L325.39 -272.187Z" stroke="url(#paint66_linear_916_15810)" stroke-width="3"></path><path opacity="0.686869" d="M326.47 -273.47C329.601 -280.847 337.127 -285.369 345.111 -284.671L758.965 -248.463C766.949 -247.765 773.576 -242.005 775.379 -234.195L868.831 170.592C870.634 178.401 867.204 186.483 860.334 190.611L504.237 404.576C497.367 408.703 488.62 407.938 482.571 402.68L169.039 130.131C162.99 124.872 161.015 116.317 164.147 108.94L326.47 -273.47Z" stroke="url(#paint67_linear_916_15810)" stroke-width="3"></path><path opacity="0.69697" d="M327.591 -274.644C330.85 -281.966 338.454 -286.356 346.425 -285.518L758.665 -242.19C766.636 -241.352 773.16 -235.477 774.827 -227.638L861.008 177.815C862.675 185.654 859.104 193.675 852.163 197.683L493.186 404.938C486.245 408.945 477.513 408.028 471.557 402.665L163.516 125.303C157.56 119.94 155.734 111.352 158.994 104.03L327.591 -274.644Z" stroke="url(#paint68_linear_916_15810)" stroke-width="3"></path><path opacity="0.707071" d="M328.744 -275.707C332.131 -282.971 339.81 -287.228 347.765 -286.251L758.269 -235.847C766.224 -234.871 772.645 -228.883 774.175 -221.015L853.091 184.972C854.62 192.84 850.909 200.797 843.899 204.683L482.169 405.194C475.159 409.079 466.444 408.009 460.583 402.543L158.105 120.478C152.243 115.012 150.568 106.393 153.955 99.1293L328.744 -275.707Z" stroke="url(#paint69_linear_916_15810)" stroke-width="3"></path><path opacity="0.717172" d="M329.934 -276.664C333.447 -283.867 341.2 -287.989 349.136 -286.874L757.783 -229.442C765.719 -228.327 772.035 -222.228 773.427 -214.335L845.085 192.058C846.477 199.951 842.628 207.843 835.551 211.605L471.192 405.339C464.116 409.101 455.421 407.879 449.656 402.312L152.811 115.653C147.046 110.085 145.521 101.438 149.035 94.2349L329.934 -276.664Z" stroke="url(#paint70_linear_916_15810)" stroke-width="3"></path><path opacity="0.727273" d="M331.152 -277.508C334.791 -284.649 342.614 -288.635 350.53 -287.381L757.199 -222.971C765.115 -221.718 771.323 -215.509 772.577 -207.593L836.987 199.076C838.241 206.992 834.255 214.815 827.114 218.453L460.252 405.379C453.111 409.017 444.439 407.644 438.772 401.977L147.629 110.834C141.962 105.166 140.588 96.4945 144.227 89.3534L331.152 -277.508Z" stroke="url(#paint71_linear_916_15810)" stroke-width="3"></path><path opacity="0.737374" d="M332.4 -278.244C336.163 -285.32 344.054 -289.169 351.947 -287.778L756.52 -216.441C764.413 -215.049 770.512 -208.733 771.627 -200.796L828.802 206.02C829.917 213.957 825.795 221.709 818.592 225.222L449.354 405.311C442.151 408.825 433.504 407.3 427.937 401.535L142.561 106.02C136.994 100.255 135.772 91.56 139.534 84.4834L332.4 -278.244Z" stroke="url(#paint72_linear_916_15810)" stroke-width="3"></path><path opacity="0.747475" d="M333.674 -278.868C337.559 -285.878 345.517 -289.588 353.384 -288.059L755.743 -209.848C763.611 -208.319 769.599 -201.898 770.576 -193.943L820.529 212.892C821.505 220.847 817.249 228.526 809.985 231.913L438.498 405.14C431.235 408.528 422.616 406.852 417.15 400.991L137.606 101.216C132.14 95.3546 131.07 86.64 134.955 79.6302L333.674 -278.868Z" stroke="url(#paint73_linear_916_15810)" stroke-width="3"></path><path opacity="0.757576" d="M334.975 -279.383C338.983 -286.324 347.004 -289.895 354.843 -288.229L754.872 -203.2C762.712 -201.534 768.587 -195.009 769.424 -187.038L812.173 219.688C813.011 227.658 808.621 235.262 801.299 238.522L427.69 404.863C420.368 408.123 411.78 406.298 406.417 400.342L132.766 96.4207C127.403 90.4647 126.485 81.7327 130.492 74.7918L334.975 -279.383Z" stroke="url(#paint74_linear_916_15810)" stroke-width="3"></path><path opacity="0.767677" d="M336.297 -279.787C340.425 -286.657 348.507 -290.087 356.316 -288.284L753.9 -196.495C761.709 -194.692 767.469 -188.066 768.168 -180.081L803.731 226.408C804.429 234.392 799.907 241.918 792.53 245.049L416.925 404.484C409.548 407.616 400.993 405.641 395.735 399.592L128.035 91.6388C122.777 85.59 122.012 76.8434 126.14 69.9735L336.297 -279.787Z" stroke="url(#paint75_linear_916_15810)" stroke-width="3"></path><path opacity="0.777778" d="M337.64 -280.078C341.887 -286.875 350.027 -290.164 357.804 -288.225L752.829 -189.734C760.605 -187.795 766.249 -181.069 766.808 -173.074L795.207 233.052C795.766 241.047 791.113 248.493 783.682 251.495L406.209 404.004C398.778 407.006 390.259 404.882 385.107 398.743L123.417 86.8724C118.265 80.7328 117.653 71.9742 121.9 65.1774L337.64 -280.078Z" stroke="url(#paint76_linear_916_15810)" stroke-width="3"></path><path opacity="0.787879" d="M339.002 -280.259C343.367 -286.981 351.564 -290.127 359.306 -288.053L751.659 -182.922C759.4 -180.848 764.926 -174.024 765.345 -166.021L786.604 239.616C787.023 247.62 782.241 254.984 774.759 257.856L395.545 403.422C388.062 406.295 379.581 404.022 374.538 397.794L118.912 82.1219C113.868 75.8934 113.408 67.1254 117.773 60.4037L339.002 -280.259Z" stroke="url(#paint77_linear_916_15810)" stroke-width="3"></path><path opacity="0.79798" d="M340.381 -280.33C344.863 -286.975 353.113 -289.978 360.817 -287.769L750.387 -176.061C758.092 -173.852 763.497 -166.933 763.777 -158.924L777.921 246.099C778.2 254.109 773.29 261.388 765.759 264.129L384.93 402.739C377.399 405.481 368.959 403.06 364.025 396.745L114.516 77.3881C109.582 71.0724 109.275 62.2978 113.757 55.6533L340.381 -280.33Z" stroke="url(#paint78_linear_916_15810)" stroke-width="3"></path><path opacity="0.808081" d="M341.775 -280.288C346.372 -286.854 354.674 -289.712 362.338 -287.369L749.016 -169.15C756.68 -166.807 761.964 -159.795 762.104 -151.781L769.161 252.503C769.301 260.516 764.265 267.708 756.687 270.318L374.371 401.96C366.793 404.569 358.396 402.002 353.573 395.601L110.232 72.6766C105.408 66.2758 105.255 57.4971 109.852 50.9319L341.775 -280.288Z" stroke="url(#paint79_linear_916_15810)" stroke-width="3"></path><path opacity="0.818182" d="M343.184 -280.137C347.894 -286.621 356.245 -289.335 363.867 -286.858L747.544 -162.194C755.166 -159.717 760.327 -152.614 760.327 -144.599L760.327 258.822C760.327 266.837 755.166 273.94 747.544 276.416L363.867 401.08C356.245 403.557 347.894 400.844 343.184 394.36L106.059 67.9854C101.348 61.5014 101.348 52.7213 106.059 46.2373L343.184 -280.137Z" stroke="url(#paint80_linear_916_15810)" stroke-width="3"></path><path opacity="0.828283" d="M344.6 -279.874C349.424 -286.274 357.82 -288.841 365.398 -286.232L745.966 -155.192C753.544 -152.583 758.581 -145.39 758.441 -137.377L751.416 265.059C751.276 273.072 745.992 280.084 738.328 282.428L353.418 400.106C345.753 402.45 337.452 399.591 332.855 393.026L101.992 63.3197C97.3948 56.7544 97.548 47.9757 102.371 41.5749L344.6 -279.874Z" stroke="url(#paint81_linear_916_15810)" stroke-width="3"></path><path opacity="0.838384" d="M346.027 -279.5C350.962 -285.816 359.401 -288.236 366.933 -285.495L744.288 -148.149C751.819 -145.408 756.729 -138.129 756.449 -130.119L742.435 271.21C742.155 279.219 736.749 286.138 729.045 288.347L343.028 399.036C335.324 401.245 327.074 398.242 322.592 391.598L98.0351 58.6783C93.5534 52.0339 93.8598 43.2592 98.7942 36.9436L346.027 -279.5Z" stroke="url(#paint82_linear_916_15810)" stroke-width="3"></path><path opacity="0.848485" d="M347.459 -279.014C352.503 -285.242 360.984 -287.515 368.466 -284.642L742.504 -141.063C749.986 -138.19 754.768 -130.827 754.349 -122.823L733.381 277.277C732.961 285.28 727.436 292.104 719.694 294.178L332.697 397.874C324.955 399.948 316.758 396.802 312.393 390.08L94.1842 54.0674C89.8191 47.3457 90.2786 38.5777 95.3224 32.3491L347.459 -279.014Z" stroke="url(#paint83_linear_916_15810)" stroke-width="3"></path><path opacity="0.858586" d="M348.898 -278.418C354.049 -284.558 362.569 -286.682 370 -283.68L740.618 -133.94C748.049 -130.938 752.702 -123.492 752.143 -115.497L724.259 283.254C723.7 291.249 718.057 297.975 710.28 299.914L322.429 396.616C314.652 398.555 306.511 395.266 302.264 388.47L90.4424 49.4836C86.1953 42.6868 86.8077 33.9282 91.9595 27.7886L348.898 -278.418Z" stroke="url(#paint84_linear_916_15810)" stroke-width="3"></path><path opacity="0.868687" d="M350.336 -277.711C355.594 -283.76 364.149 -285.735 371.526 -282.604L738.624 -126.78C746.002 -123.648 750.524 -116.122 749.825 -108.138L715.068 289.145C714.369 297.129 708.609 303.756 700.8 305.559L312.22 395.269C304.411 397.072 296.329 393.641 292.201 386.772L86.8034 44.9326C82.6755 38.0627 83.4408 29.3161 88.6989 23.2673L350.336 -277.711Z" stroke="url(#paint85_linear_916_15810)" stroke-width="3"></path><path opacity="0.878788" d="M351.779 -276.893C357.142 -282.849 365.73 -284.674 373.052 -281.414L736.531 -119.583C743.852 -116.324 748.242 -108.72 747.405 -100.749L705.815 294.948C704.977 302.919 699.102 309.444 691.263 311.11L302.081 393.833C294.241 395.499 286.22 391.928 282.213 384.987L83.2746 40.4161C79.2672 33.4752 80.185 24.7433 85.5478 18.7872L351.779 -276.893Z" stroke="url(#paint86_linear_916_15810)" stroke-width="3"></path><path opacity="0.888889" d="M353.219 -275.965C358.685 -281.827 367.304 -283.502 374.568 -280.115L734.329 -112.356C741.592 -108.968 745.849 -101.289 744.872 -93.3343L696.496 300.659C695.519 308.614 689.531 315.036 681.664 316.565L292.004 392.307C284.137 393.836 276.18 390.126 272.294 383.116L79.8476 35.9334C75.962 28.9236 77.0321 20.2091 82.4981 14.3475L353.219 -275.965Z" stroke="url(#paint87_linear_916_15810)" stroke-width="3"></path><path opacity="0.89899" d="M354.655 -274.927C360.223 -280.692 368.869 -282.217 376.073 -278.704L732.021 -105.096C739.224 -101.583 743.346 -93.8304 742.231 -85.8937L687.115 306.281C685.999 314.217 679.9 320.533 672.007 321.925L281.995 390.694C274.102 392.086 266.211 388.237 262.448 381.161L76.5241 31.4884C72.7614 24.4119 73.9833 15.7173 79.5508 9.95199L354.655 -274.927Z" stroke="url(#paint88_linear_916_15810)" stroke-width="3"></path><path opacity="0.909091" d="M356.087 -273.778C361.754 -279.445 370.426 -280.818 377.567 -277.18L729.607 -97.8062C736.748 -94.1676 740.735 -86.3445 739.481 -78.4285L677.673 311.811C676.419 319.727 670.211 325.936 662.295 327.19L272.055 388.998C264.139 390.251 256.316 386.265 252.677 379.124L73.3034 27.0836C69.6648 19.9425 71.0383 11.2705 76.7055 5.60331L356.087 -273.778Z" stroke="url(#paint89_linear_916_15810)" stroke-width="3"></path><path opacity="0.919192" d="M357.511 -272.522C363.276 -278.09 371.971 -279.311 379.048 -275.549L727.088 -90.4924C734.164 -86.7297 738.013 -78.8383 736.622 -70.9454L668.173 317.246C666.781 325.139 660.465 331.238 652.529 332.354L262.185 387.213C254.248 388.328 246.496 384.207 242.982 377.003L70.1851 22.7161C66.6717 15.5126 68.1964 6.86598 73.9617 1.29851L357.511 -272.522Z" stroke="url(#paint90_linear_916_15810)" stroke-width="3"></path><path opacity="0.929293" d="M358.928 -271.155C364.789 -276.621 373.504 -277.691 380.514 -273.806L724.463 -83.1514C731.473 -79.2658 735.184 -71.3083 733.654 -63.4409L658.618 322.59C657.088 330.457 650.667 336.445 642.712 337.422L252.387 385.348C244.432 386.325 236.753 382.068 233.366 374.804L67.1688 18.3932C63.7817 11.1295 65.457 2.51074 71.3186 -2.95526L358.928 -271.155Z" stroke="url(#paint91_linear_916_15810)" stroke-width="3"></path><path opacity="0.939394" d="M360.331 -269.68C366.287 -275.043 375.019 -275.961 381.96 -271.954L721.73 -75.7875C728.67 -71.7802 732.242 -63.7592 730.575 -55.9197L649.005 327.839C647.339 335.678 640.814 341.553 632.843 342.391L242.66 383.401C234.689 384.239 227.086 379.849 223.826 372.527L64.2501 14.1139C60.9902 6.79212 62.8157 -1.79604 68.7717 -7.1589L360.331 -269.68Z" stroke="url(#paint92_linear_916_15810)" stroke-width="3"></path><path opacity="0.949495" d="M361.722 -268.095C367.771 -273.354 376.517 -274.119 383.387 -269.991L718.889 -68.401C725.759 -64.2731 729.19 -56.1911 727.387 -48.3818L639.339 332.994C637.536 340.804 630.91 346.564 622.926 347.262L233.007 381.376C225.023 382.074 217.497 377.552 214.366 370.175L61.4303 9.88182C58.2987 2.50426 60.2738 -6.05071 66.3225 -11.3088L361.722 -268.095Z" stroke="url(#paint93_linear_916_15810)" stroke-width="3"></path><path opacity="0.959596" d="M363.1 -266.406C369.24 -271.558 377.998 -272.17 384.795 -267.923L715.944 -60.998C722.741 -56.7509 726.03 -48.6102 724.091 -40.8336L629.625 338.051C627.686 345.828 620.96 351.471 612.965 352.03L223.432 379.269C215.437 379.828 207.991 375.176 204.989 367.745L58.711 5.6943C55.7086 -1.73677 57.8327 -10.256 63.9723 -15.4077L363.1 -266.406Z" stroke="url(#paint94_linear_916_15810)" stroke-width="3"></path><path opacity="0.969697" d="M364.459 -264.607C370.688 -269.651 379.456 -270.11 386.178 -265.745L712.89 -53.5757C719.611 -49.2106 722.758 -41.0137 720.683 -33.2721L619.858 343.014C617.784 350.755 610.96 356.281 602.957 356.7L213.931 377.088C205.927 377.508 198.564 372.726 195.691 365.243L56.0858 1.55797C53.2135 -5.92437 55.486 -14.4052 61.7146 -19.449L364.459 -264.607Z" stroke="url(#paint95_linear_916_15810)" stroke-width="3"></path><path opacity="0.979798" d="M365.802 -262.704C372.117 -267.639 380.892 -267.945 387.536 -263.463L709.73 -46.1411C716.374 -41.6593 719.377 -33.4088 717.168 -25.7046L610.046 347.876C607.836 355.58 600.918 360.986 592.908 361.265L204.509 374.828C196.499 375.108 189.22 370.198 186.479 362.667L53.558 -2.53083C50.8168 -10.0622 53.2369 -18.5021 59.5525 -23.4364L365.802 -262.704Z" stroke="url(#paint96_linear_916_15810)" stroke-width="3"></path><path opacity="0.989899" d="M367.122 -260.693C373.523 -265.516 382.301 -265.669 388.867 -261.072L706.461 -38.6902C713.026 -34.0931 715.885 -25.7915 713.542 -18.127L600.186 352.643C597.843 360.308 590.831 365.592 582.817 365.732L195.165 372.498C187.151 372.638 179.959 367.602 177.35 360.024L51.1233 -6.56442C48.5139 -14.1425 51.081 -22.5388 57.4818 -27.3622L367.122 -260.693Z" stroke="url(#paint97_linear_916_15810)" stroke-width="3"></path><path d="M368.423 -258.577C374.907 -263.288 383.687 -263.288 390.171 -258.577L703.089 -31.2291C709.573 -26.5182 712.286 -18.1679 709.809 -10.5455L590.285 357.311C587.809 364.934 580.705 370.094 572.691 370.094H185.903C177.889 370.094 170.785 364.934 168.309 357.311L48.7849 -10.5455C46.3083 -18.1679 49.0214 -26.5182 55.5055 -31.2291L368.423 -258.577Z" stroke="url(#paint98_linear_916_15810)" stroke-width="3"></path></g><defs><filter id="filter0_f_916_15810" x="38.3789" y="-464.392" width="1189.67" height="881.405" filterUnits="userSpaceOnUse" color-interpolation-filters="sRGB"><feGaussianBlur stdDeviation="4"></feGaussianBlur></filter><linearGradient id="paint0_linear_916_15810" x1="877.384" y1="180.121" x2="806.071" y2="-327.301" gradientUnits="userSpaceOnUse"><stop stop-color="white"></stop><stop offset="1" stop-color="white"></stop></linearGradient><linearGradient id="paint1_linear_916_15810" x1="868.263" y1="181.826" x2="805.93" y2="-325.836" gradientUnits="userSpaceOnUse"><stop stop-color="white"></stop><stop offset="1" stop-color="white"></stop></linearGradient><linearGradient id="paint2_linear_916_15810" x1="859.147" y1="183.453" x2="805.781" y2="-324.29" gradientUnits="userSpaceOnUse"><stop stop-color="white"></stop><stop offset="1" stop-color="white"></stop></linearGradient><linearGradient id="paint3_linear_916_15810" x1="850.042" y1="185.004" x2="805.627" y2="-322.661" gradientUnits="userSpaceOnUse"><stop stop-color="white"></stop><stop offset="1" stop-color="white"></stop></linearGradient><linearGradient id="paint4_linear_916_15810" x1="840.943" y1="186.477" x2="805.46" y2="-320.953" gradientUnits="userSpaceOnUse"><stop stop-color="white"></stop><stop offset="1" stop-color="white"></stop></linearGradient><linearGradient id="paint5_linear_916_15810" x1="831.854" y1="187.872" x2="805.281" y2="-319.167" gradientUnits="userSpaceOnUse"><stop stop-color="white"></stop><stop offset="1" stop-color="white"></stop></linearGradient><linearGradient id="paint6_linear_916_15810" x1="822.777" y1="189.19" x2="805.09" y2="-317.301" gradientUnits="userSpaceOnUse"><stop stop-color="white"></stop><stop offset="1" stop-color="white"></stop></linearGradient><linearGradient id="paint7_linear_916_15810" x1="813.714" y1="190.433" x2="804.885" y2="-315.354" gradientUnits="userSpaceOnUse"><stop stop-color="white"></stop><stop offset="1" stop-color="white"></stop></linearGradient><linearGradient id="paint8_linear_916_15810" x1="804.666" y1="191.6" x2="804.666" y2="-313.329" gradientUnits="userSpaceOnUse"><stop stop-color="white"></stop><stop offset="1" stop-color="white"></stop></linearGradient><linearGradient id="paint9_linear_916_15810" x1="795.632" y1="192.69" x2="804.428" y2="-311.227" gradientUnits="userSpaceOnUse"><stop stop-color="white"></stop><stop offset="1" stop-color="white"></stop></linearGradient><linearGradient id="paint10_linear_916_15810" x1="786.617" y1="193.708" x2="804.174" y2="-309.045" gradientUnits="userSpaceOnUse"><stop stop-color="white"></stop><stop offset="1" stop-color="white"></stop></linearGradient><linearGradient id="paint11_linear_916_15810" x1="777.619" y1="194.648" x2="803.898" y2="-306.788" gradientUnits="userSpaceOnUse"><stop stop-color="white"></stop><stop offset="1" stop-color="white"></stop></linearGradient><linearGradient id="paint12_linear_916_15810" x1="768.641" y1="195.516" x2="803.602" y2="-304.452" gradientUnits="userSpaceOnUse"><stop stop-color="white"></stop><stop offset="1" stop-color="white"></stop></linearGradient><linearGradient id="paint13_linear_916_15810" x1="759.684" y1="196.31" x2="803.284" y2="-302.041" gradientUnits="userSpaceOnUse"><stop stop-color="white"></stop><stop offset="1" stop-color="white"></stop></linearGradient><linearGradient id="paint14_linear_916_15810" x1="750.749" y1="197.03" x2="802.942" y2="-299.554" gradientUnits="userSpaceOnUse"><stop stop-color="white"></stop><stop offset="1" stop-color="white"></stop></linearGradient><linearGradient id="paint15_linear_916_15810" x1="741.838" y1="197.678" x2="802.575" y2="-296.991" gradientUnits="userSpaceOnUse"><stop stop-color="white"></stop><stop offset="1" stop-color="white"></stop></linearGradient><linearGradient id="paint16_linear_916_15810" x1="732.95" y1="198.255" x2="802.182" y2="-294.353" gradientUnits="userSpaceOnUse"><stop stop-color="white"></stop><stop offset="1" stop-color="white"></stop></linearGradient><linearGradient id="paint17_linear_916_15810" x1="724.089" y1="198.759" x2="801.761" y2="-291.642" gradientUnits="userSpaceOnUse"><stop stop-color="white"></stop><stop offset="1" stop-color="white"></stop></linearGradient><linearGradient id="paint18_linear_916_15810" x1="715.258" y1="199.193" x2="801.314" y2="-288.857" gradientUnits="userSpaceOnUse"><stop stop-color="white"></stop><stop offset="1" stop-color="white"></stop></linearGradient><linearGradient id="paint19_linear_916_15810" x1="706.451" y1="199.554" x2="800.833" y2="-286.001" gradientUnits="userSpaceOnUse"><stop stop-color="white"></stop><stop offset="1" stop-color="white"></stop></linearGradient><linearGradient id="paint20_linear_916_15810" x1="697.675" y1="199.849" x2="800.323" y2="-283.07" gradientUnits="userSpaceOnUse"><stop stop-color="white"></stop><stop offset="1" stop-color="white"></stop></linearGradient><linearGradient id="paint21_linear_916_15810" x1="688.933" y1="200.073" x2="799.783" y2="-280.071" gradientUnits="userSpaceOnUse"><stop stop-color="white"></stop><stop offset="1" stop-color="white"></stop></linearGradient><linearGradient id="paint22_linear_916_15810" x1="680.219" y1="200.23" x2="799.206" y2="-276.999" gradientUnits="userSpaceOnUse"><stop stop-color="white"></stop><stop offset="1" stop-color="white"></stop></linearGradient><linearGradient id="paint23_linear_916_15810" x1="671.54" y1="200.32" x2="798.595" y2="-273.857" gradientUnits="userSpaceOnUse"><stop stop-color="white"></stop><stop offset="1" stop-color="white"></stop></linearGradient><linearGradient id="paint24_linear_916_15810" x1="662.892" y1="200.341" x2="797.946" y2="-270.646" gradientUnits="userSpaceOnUse"><stop stop-color="white"></stop><stop offset="1" stop-color="white"></stop></linearGradient><linearGradient id="paint25_linear_916_15810" x1="654.282" y1="200.296" x2="797.262" y2="-267.369" gradientUnits="userSpaceOnUse"><stop stop-color="white"></stop><stop offset="1" stop-color="white"></stop></linearGradient><linearGradient id="paint26_linear_916_15810" x1="645.708" y1="200.187" x2="796.539" y2="-264.022" gradientUnits="userSpaceOnUse"><stop stop-color="white"></stop><stop offset="1" stop-color="white"></stop></linearGradient><linearGradient id="paint27_linear_916_15810" x1="637.174" y1="200.013" x2="795.779" y2="-260.608" gradientUnits="userSpaceOnUse"><stop stop-color="white"></stop><stop offset="1" stop-color="white"></stop></linearGradient><linearGradient id="paint28_linear_916_15810" x1="628.677" y1="199.777" x2="794.976" y2="-257.128" gradientUnits="userSpaceOnUse"><stop stop-color="white"></stop><stop offset="1" stop-color="white"></stop></linearGradient><linearGradient id="paint29_linear_916_15810" x1="620.217" y1="199.475" x2="794.13" y2="-253.585" gradientUnits="userSpaceOnUse"><stop stop-color="white"></stop><stop offset="1" stop-color="white"></stop></linearGradient><linearGradient id="paint30_linear_916_15810" x1="611.799" y1="199.113" x2="793.243" y2="-249.975" gradientUnits="userSpaceOnUse"><stop stop-color="white"></stop><stop offset="1" stop-color="white"></stop></linearGradient><linearGradient id="paint31_linear_916_15810" x1="603.424" y1="198.688" x2="792.313" y2="-246.305" gradientUnits="userSpaceOnUse"><stop stop-color="white"></stop><stop offset="1" stop-color="white"></stop></linearGradient><linearGradient id="paint32_linear_916_15810" x1="595.093" y1="198.204" x2="791.339" y2="-242.57" gradientUnits="userSpaceOnUse"><stop stop-color="white"></stop><stop offset="1" stop-color="white"></stop></linearGradient><linearGradient id="paint33_linear_916_15810" x1="586.803" y1="197.659" x2="790.315" y2="-238.775" gradientUnits="userSpaceOnUse"><stop stop-color="white"></stop><stop offset="1" stop-color="white"></stop></linearGradient><linearGradient id="paint34_linear_916_15810" x1="578.559" y1="197.058" x2="789.248" y2="-234.918" gradientUnits="userSpaceOnUse"><stop stop-color="white"></stop><stop offset="1" stop-color="white"></stop></linearGradient><linearGradient id="paint35_linear_916_15810" x1="570.36" y1="196.398" x2="788.131" y2="-231.003" gradientUnits="userSpaceOnUse"><stop stop-color="white"></stop><stop offset="1" stop-color="white"></stop></linearGradient><linearGradient id="paint36_linear_916_15810" x1="562.206" y1="195.681" x2="786.964" y2="-227.028" gradientUnits="userSpaceOnUse"><stop stop-color="white"></stop><stop offset="1" stop-color="white"></stop></linearGradient><linearGradient id="paint37_linear_916_15810" x1="554.104" y1="194.908" x2="785.752" y2="-222.996" gradientUnits="userSpaceOnUse"><stop stop-color="white"></stop><stop offset="1" stop-color="white"></stop></linearGradient><linearGradient id="paint38_linear_916_15810" x1="546.047" y1="194.081" x2="784.486" y2="-218.907" gradientUnits="userSpaceOnUse"><stop stop-color="white"></stop><stop offset="1" stop-color="white"></stop></linearGradient><linearGradient id="paint39_linear_916_15810" x1="538.038" y1="193.198" x2="783.167" y2="-214.764" gradientUnits="userSpaceOnUse"><stop stop-color="white"></stop><stop offset="1" stop-color="white"></stop></linearGradient><linearGradient id="paint40_linear_916_15810" x1="530.081" y1="192.264" x2="781.797" y2="-210.565" gradientUnits="userSpaceOnUse"><stop stop-color="white"></stop><stop offset="1" stop-color="white"></stop></linearGradient><linearGradient id="paint41_linear_916_15810" x1="522.176" y1="191.278" x2="780.374" y2="-206.312" gradientUnits="userSpaceOnUse"><stop stop-color="white"></stop><stop offset="1" stop-color="white"></stop></linearGradient><linearGradient id="paint42_linear_916_15810" x1="514.323" y1="190.241" x2="778.898" y2="-202.008" gradientUnits="userSpaceOnUse"><stop stop-color="white"></stop><stop offset="1" stop-color="white"></stop></linearGradient><linearGradient id="paint43_linear_916_15810" x1="506.522" y1="189.154" x2="777.366" y2="-197.651" gradientUnits="userSpaceOnUse"><stop stop-color="white"></stop><stop offset="1" stop-color="white"></stop></linearGradient><linearGradient id="paint44_linear_916_15810" x1="498.774" y1="188.019" x2="775.778" y2="-193.244" gradientUnits="userSpaceOnUse"><stop stop-color="white"></stop><stop offset="1" stop-color="white"></stop></linearGradient><linearGradient id="paint45_linear_916_15810" x1="491.081" y1="186.836" x2="774.134" y2="-188.788" gradientUnits="userSpaceOnUse"><stop stop-color="white"></stop><stop offset="1" stop-color="white"></stop></linearGradient><linearGradient id="paint46_linear_916_15810" x1="483.443" y1="185.604" x2="772.432" y2="-184.285" gradientUnits="userSpaceOnUse"><stop stop-color="white"></stop><stop offset="1" stop-color="white"></stop></linearGradient><linearGradient id="paint47_linear_916_15810" x1="475.86" y1="184.328" x2="770.673" y2="-179.735" gradientUnits="userSpaceOnUse"><stop stop-color="white"></stop><stop offset="1" stop-color="white"></stop></linearGradient><linearGradient id="paint48_linear_916_15810" x1="468.333" y1="183.007" x2="768.853" y2="-175.139" gradientUnits="userSpaceOnUse"><stop stop-color="white"></stop><stop offset="1" stop-color="white"></stop></linearGradient><linearGradient id="paint49_linear_916_15810" x1="460.863" y1="181.644" x2="766.975" y2="-170.497" gradientUnits="userSpaceOnUse"><stop stop-color="white"></stop><stop offset="1" stop-color="white"></stop></linearGradient><linearGradient id="paint50_linear_916_15810" x1="453.451" y1="180.239" x2="765.036" y2="-165.812" gradientUnits="userSpaceOnUse"><stop stop-color="white"></stop><stop offset="1" stop-color="white"></stop></linearGradient><linearGradient id="paint51_linear_916_15810" x1="446.095" y1="178.791" x2="763.034" y2="-161.085" gradientUnits="userSpaceOnUse"><stop stop-color="white"></stop><stop offset="1" stop-color="white"></stop></linearGradient><linearGradient id="paint52_linear_916_15810" x1="438.8" y1="177.304" x2="760.973" y2="-156.316" gradientUnits="userSpaceOnUse"><stop stop-color="white"></stop><stop offset="1" stop-color="white"></stop></linearGradient><linearGradient id="paint53_linear_916_15810" x1="431.564" y1="175.778" x2="758.85" y2="-151.508" gradientUnits="userSpaceOnUse"><stop stop-color="white"></stop><stop offset="1" stop-color="white"></stop></linearGradient><linearGradient id="paint54_linear_916_15810" x1="424.391" y1="174.213" x2="756.666" y2="-146.661" gradientUnits="userSpaceOnUse"><stop stop-color="white"></stop><stop offset="1" stop-color="white"></stop></linearGradient><linearGradient id="paint55_linear_916_15810" x1="417.275" y1="172.613" x2="754.416" y2="-141.776" gradientUnits="userSpaceOnUse"><stop stop-color="white"></stop><stop offset="1" stop-color="white"></stop></linearGradient><linearGradient id="paint56_linear_916_15810" x1="410.224" y1="170.975" x2="752.105" y2="-136.856" gradientUnits="userSpaceOnUse"><stop stop-color="white"></stop><stop offset="1" stop-color="white"></stop></linearGradient><linearGradient id="paint57_linear_916_15810" x1="403.233" y1="169.306" x2="749.729" y2="-131.898" gradientUnits="userSpaceOnUse"><stop stop-color="white"></stop><stop offset="1" stop-color="white"></stop></linearGradient><linearGradient id="paint58_linear_916_15810" x1="396.302" y1="167.601" x2="747.285" y2="-126.909" gradientUnits="userSpaceOnUse"><stop stop-color="white"></stop><stop offset="1" stop-color="white"></stop></linearGradient><linearGradient id="paint59_linear_916_15810" x1="389.435" y1="165.866" x2="744.779" y2="-121.885" gradientUnits="userSpaceOnUse"><stop stop-color="white"></stop><stop offset="1" stop-color="white"></stop></linearGradient><linearGradient id="paint60_linear_916_15810" x1="382.632" y1="164.099" x2="742.206" y2="-116.831" gradientUnits="userSpaceOnUse"><stop stop-color="white"></stop><stop offset="1" stop-color="white"></stop></linearGradient><linearGradient id="paint61_linear_916_15810" x1="375.892" y1="162.304" x2="739.568" y2="-111.745" gradientUnits="userSpaceOnUse"><stop stop-color="white"></stop><stop offset="1" stop-color="white"></stop></linearGradient><linearGradient id="paint62_linear_916_15810" x1="369.215" y1="160.481" x2="736.861" y2="-106.63" gradientUnits="userSpaceOnUse"><stop stop-color="white"></stop><stop offset="1" stop-color="white"></stop></linearGradient><linearGradient id="paint63_linear_916_15810" x1="362.601" y1="158.629" x2="734.088" y2="-101.489" gradientUnits="userSpaceOnUse"><stop stop-color="white"></stop><stop offset="1" stop-color="white"></stop></linearGradient><linearGradient id="paint64_linear_916_15810" x1="356.052" y1="156.752" x2="731.246" y2="-96.3201" gradientUnits="userSpaceOnUse"><stop stop-color="white"></stop><stop offset="1" stop-color="white"></stop></linearGradient><linearGradient id="paint65_linear_916_15810" x1="349.572" y1="154.848" x2="728.342" y2="-91.128" gradientUnits="userSpaceOnUse"><stop stop-color="white"></stop><stop offset="1" stop-color="white"></stop></linearGradient><linearGradient id="paint66_linear_916_15810" x1="343.154" y1="152.922" x2="725.366" y2="-85.9101" gradientUnits="userSpaceOnUse"><stop stop-color="white"></stop><stop offset="1" stop-color="white"></stop></linearGradient><linearGradient id="paint67_linear_916_15810" x1="336.8" y1="150.974" x2="722.32" y2="-80.6702" gradientUnits="userSpaceOnUse"><stop stop-color="white"></stop><stop offset="1" stop-color="white"></stop></linearGradient><linearGradient id="paint68_linear_916_15810" x1="330.515" y1="149.004" x2="719.209" y2="-75.4093" gradientUnits="userSpaceOnUse"><stop stop-color="white"></stop><stop offset="1" stop-color="white"></stop></linearGradient><linearGradient id="paint69_linear_916_15810" x1="324.294" y1="147.015" x2="716.028" y2="-70.1262" gradientUnits="userSpaceOnUse"><stop stop-color="white"></stop><stop offset="1" stop-color="white"></stop></linearGradient><linearGradient id="paint70_linear_916_15810" x1="318.142" y1="145.006" x2="712.78" y2="-64.8267" gradientUnits="userSpaceOnUse"><stop stop-color="white"></stop><stop offset="1" stop-color="white"></stop></linearGradient><linearGradient id="paint71_linear_916_15810" x1="312.053" y1="142.982" x2="709.461" y2="-59.5074" gradientUnits="userSpaceOnUse"><stop stop-color="white"></stop><stop offset="1" stop-color="white"></stop></linearGradient><linearGradient id="paint72_linear_916_15810" x1="306.033" y1="140.939" x2="706.073" y2="-54.1732" gradientUnits="userSpaceOnUse"><stop stop-color="white"></stop><stop offset="1" stop-color="white"></stop></linearGradient><linearGradient id="paint73_linear_916_15810" x1="300.078" y1="138.884" x2="702.615" y2="-48.8222" gradientUnits="userSpaceOnUse"><stop stop-color="white"></stop><stop offset="1" stop-color="white"></stop></linearGradient><linearGradient id="paint74_linear_916_15810" x1="294.192" y1="136.812" x2="699.09" y2="-43.4596" gradientUnits="userSpaceOnUse"><stop stop-color="white"></stop><stop offset="1" stop-color="white"></stop></linearGradient><linearGradient id="paint75_linear_916_15810" x1="288.371" y1="134.729" x2="695.492" y2="-38.0834" gradientUnits="userSpaceOnUse"><stop stop-color="white"></stop><stop offset="1" stop-color="white"></stop></linearGradient><linearGradient id="paint76_linear_916_15810" x1="282.617" y1="132.636" x2="691.825" y2="-32.6947" gradientUnits="userSpaceOnUse"><stop stop-color="white"></stop><stop offset="1" stop-color="white"></stop></linearGradient><linearGradient id="paint77_linear_916_15810" x1="276.931" y1="130.532" x2="688.089" y2="-27.2966" gradientUnits="userSpaceOnUse"><stop stop-color="white"></stop><stop offset="1" stop-color="white"></stop></linearGradient><linearGradient id="paint78_linear_916_15810" x1="271.311" y1="128.418" x2="684.283" y2="-21.8914" gradientUnits="userSpaceOnUse"><stop stop-color="white"></stop><stop offset="1" stop-color="white"></stop></linearGradient><linearGradient id="paint79_linear_916_15810" x1="265.76" y1="126.298" x2="680.407" y2="-16.4767" gradientUnits="userSpaceOnUse"><stop stop-color="white"></stop><stop offset="1" stop-color="white"></stop></linearGradient><linearGradient id="paint80_linear_916_15810" x1="260.276" y1="124.17" x2="676.464" y2="-11.0577" gradientUnits="userSpaceOnUse"><stop stop-color="white"></stop><stop offset="1" stop-color="white"></stop></linearGradient><linearGradient id="paint81_linear_916_15810" x1="254.858" y1="122.037" x2="672.447" y2="-5.63247" gradientUnits="userSpaceOnUse"><stop stop-color="white"></stop><stop offset="1" stop-color="white"></stop></linearGradient><linearGradient id="paint82_linear_916_15810" x1="249.508" y1="119.9" x2="668.363" y2="-0.205113" gradientUnits="userSpaceOnUse"><stop stop-color="white"></stop><stop offset="1" stop-color="white"></stop></linearGradient><linearGradient id="paint83_linear_916_15810" x1="244.223" y1="117.762" x2="664.208" y2="5.22704" gradientUnits="userSpaceOnUse"><stop stop-color="white"></stop><stop offset="1" stop-color="white"></stop></linearGradient><linearGradient id="paint84_linear_916_15810" x1="239.007" y1="115.619" x2="659.985" y2="10.6579" gradientUnits="userSpaceOnUse"><stop stop-color="white"></stop><stop offset="1" stop-color="white"></stop></linearGradient><linearGradient id="paint85_linear_916_15810" x1="233.855" y1="113.478" x2="655.689" y2="16.0897" gradientUnits="userSpaceOnUse"><stop stop-color="white"></stop><stop offset="1" stop-color="white"></stop></linearGradient><linearGradient id="paint86_linear_916_15810" x1="228.774" y1="111.338" x2="651.329" y2="21.5213" gradientUnits="userSpaceOnUse"><stop stop-color="white"></stop><stop offset="1" stop-color="white"></stop></linearGradient><linearGradient id="paint87_linear_916_15810" x1="223.757" y1="109.199" x2="646.897" y2="26.9489" gradientUnits="userSpaceOnUse"><stop stop-color="white"></stop><stop offset="1" stop-color="white"></stop></linearGradient><linearGradient id="paint88_linear_916_15810" x1="218.806" y1="107.064" x2="642.396" y2="32.3733" gradientUnits="userSpaceOnUse"><stop stop-color="white"></stop><stop offset="1" stop-color="white"></stop></linearGradient><linearGradient id="paint89_linear_916_15810" x1="213.921" y1="104.934" x2="637.826" y2="37.7941" gradientUnits="userSpaceOnUse"><stop stop-color="white"></stop><stop offset="1" stop-color="white"></stop></linearGradient><linearGradient id="paint90_linear_916_15810" x1="209.102" y1="102.807" x2="633.189" y2="43.2055" gradientUnits="userSpaceOnUse"><stop stop-color="white"></stop><stop offset="1" stop-color="white"></stop></linearGradient><linearGradient id="paint91_linear_916_15810" x1="204.35" y1="100.689" x2="628.485" y2="48.6117" gradientUnits="userSpaceOnUse"><stop stop-color="white"></stop><stop offset="1" stop-color="white"></stop></linearGradient><linearGradient id="paint92_linear_916_15810" x1="199.662" y1="98.5781" x2="623.71" y2="54.0088" gradientUnits="userSpaceOnUse"><stop stop-color="white"></stop><stop offset="1" stop-color="white"></stop></linearGradient><linearGradient id="paint93_linear_916_15810" x1="195.038" y1="96.478" x2="618.868" y2="59.3977" gradientUnits="userSpaceOnUse"><stop stop-color="white"></stop><stop offset="1" stop-color="white"></stop></linearGradient><linearGradient id="paint94_linear_916_15810" x1="190.482" y1="94.3853" x2="613.962" y2="64.7727" gradientUnits="userSpaceOnUse"><stop stop-color="white"></stop><stop offset="1" stop-color="white"></stop></linearGradient><linearGradient id="paint95_linear_916_15810" x1="185.987" y1="92.3061" x2="608.986" y2="70.1376" gradientUnits="userSpaceOnUse"><stop stop-color="white"></stop><stop offset="1" stop-color="white"></stop></linearGradient><linearGradient id="paint96_linear_916_15810" x1="181.558" y1="90.2362" x2="603.945" y2="75.4862" gradientUnits="userSpaceOnUse"><stop stop-color="white"></stop><stop offset="1" stop-color="white"></stop></linearGradient><linearGradient id="paint97_linear_916_15810" x1="177.192" y1="88.183" x2="598.837" y2="80.8231" gradientUnits="userSpaceOnUse"><stop stop-color="white"></stop><stop offset="1" stop-color="white"></stop></linearGradient><linearGradient id="paint98_linear_916_15810" x1="172.892" y1="86.1431" x2="593.666" y2="86.1431" gradientUnits="userSpaceOnUse"><stop stop-color="white"></stop><stop offset="1" stop-color="white"></stop></linearGradient></defs></svg>